<?xml version="1.0"?>
<svg version="1.1" xmlns="http://www.w3.org/2000/svg" viewBox="0 0 170 40" width="170px" height="40px">
    <g transform="matrix(0.792731,0,0,0.172787,-20.176,-1.38371)">
        <path d="M55.165,94.271L45.872,190.729L41.163,190.729L31.87,94.271L36.621,94.271L43.517,166.229L50.413,94.271L55.165,94.271Z" style="fill:rgb(90,0,255);fill-rule:nonzero;"/>
        <path d="M56.847,94.271L61.262,94.271L61.262,190.729L56.847,190.729L56.847,94.271ZM56.931,49.708L61.346,49.708L61.346,74.787L56.931,74.787L56.931,49.708Z" style="fill:rgb(90,0,255);fill-rule:nonzero;"/>
        <path d="M73.414,194.588C71.816,194.588 70.344,193.044 68.999,189.958C67.653,186.871 66.588,182.627 65.803,177.225C65.018,171.824 64.626,165.715 64.626,158.898L69.041,158.898C69.041,164.686 69.447,169.187 70.26,172.402C71.073,175.618 72.124,177.225 73.414,177.225C74.844,177.225 75.958,176.068 76.757,173.753C77.556,171.438 77.955,168.223 77.955,164.107C77.955,160.892 77.724,158.287 77.261,156.294C76.799,154.301 76.217,152.757 75.516,151.664C74.816,150.571 73.863,149.381 72.657,148.095C71.087,146.423 69.805,144.719 68.81,142.983C67.814,141.247 66.967,138.514 66.266,134.784C65.565,131.054 65.214,125.974 65.214,119.543C65.214,113.756 65.586,108.644 66.329,104.207C67.072,99.77 68.067,96.361 69.314,93.982C70.562,91.603 71.9,90.413 73.33,90.413C74.928,90.413 76.392,91.957 77.724,95.043C79.056,98.13 80.114,102.374 80.899,107.776C81.684,113.177 82.076,119.286 82.076,126.103L77.661,126.103C77.661,120.315 77.261,115.814 76.463,112.599C75.664,109.383 74.619,107.776 73.33,107.776C72.265,107.776 71.382,108.804 70.681,110.862C69.98,112.92 69.63,115.749 69.63,119.351C69.63,123.209 70.029,126.07 70.828,127.935C71.627,129.8 72.853,131.569 74.507,133.241C76.133,134.912 77.472,136.681 78.523,138.546C79.574,140.411 80.478,143.401 81.235,147.516C81.992,151.632 82.37,157.226 82.37,164.3C82.37,170.345 81.978,175.65 81.193,180.216C80.408,184.781 79.336,188.318 77.976,190.826C76.617,193.334 75.096,194.588 73.414,194.588Z" style="fill:rgb(90,0,255);fill-rule:nonzero;"/>
        <path d="M105.539,94.271L105.539,190.729L101.965,190.729L101.334,177.225C99.568,188.8 97.354,194.588 94.691,194.588C93.065,194.588 91.565,192.659 90.191,188.8C88.818,184.942 87.732,179.412 86.933,172.21C86.134,165.007 85.734,156.776 85.734,147.516L85.734,94.271L90.149,94.271L90.149,147.516C90.149,156.648 90.591,163.882 91.474,169.219C92.357,174.557 93.541,177.225 95.027,177.225C96.176,177.225 97.291,175.521 98.37,172.113C99.449,168.705 100.367,164.043 101.124,158.127L101.124,94.271L105.539,94.271Z" style="fill:rgb(90,0,255);fill-rule:nonzero;"/>
        <path d="M117.019,90.413C120.186,90.413 122.625,94.85 124.335,103.724C126.045,112.599 126.9,124.881 126.9,140.571L126.9,190.729L123.368,190.729L122.821,181.662C121.055,190.279 118.925,194.588 116.43,194.588C115.112,194.588 113.872,193.27 112.709,190.633C111.545,187.997 110.62,184.267 109.933,179.444C109.247,174.621 108.903,169.059 108.903,162.757C108.903,155.812 109.324,149.735 110.165,144.526C111.006,139.317 112.141,135.33 113.571,132.565C115,129.8 116.556,128.418 118.238,128.418L122.485,128.418C122.317,121.73 121.749,116.618 120.782,113.081C119.815,109.544 118.56,107.776 117.019,107.776C115.673,107.776 114.538,108.676 113.613,110.476C112.688,112.277 111.748,115.171 110.795,119.158L110.795,98.323C112.87,93.05 114.944,90.413 117.019,90.413ZM117.271,177.225C120.074,177.225 121.826,171.759 122.527,160.828L122.527,143.658L118.112,143.658C116.71,143.658 115.554,145.233 114.643,148.384C113.732,151.535 113.276,155.876 113.276,161.406C113.276,166.165 113.669,169.991 114.454,172.885C115.238,175.778 116.178,177.225 117.271,177.225Z" style="fill:rgb(90,0,255);fill-rule:nonzero;"/>
        <rect x="130.684" y="51.83" width="4.415" height="138.9" style="fill:rgb(90,0,255);fill-rule:nonzero;"/>
        <path d="M160.707,47.972C161.744,47.972 162.852,49.258 164.029,51.83L164.029,70.543C163.356,67.07 162.235,65.334 160.665,65.334C159.516,65.334 158.717,66.877 158.268,69.964C157.82,73.051 157.596,78.195 157.596,85.397L157.596,94.271L162.978,94.271L162.978,111.634L157.596,111.634L157.596,190.729L153.18,190.729L153.18,111.634L150.027,111.634L150.027,94.271L153.18,94.271L153.18,86.941C153.18,74.337 153.769,64.691 154.947,58.003C156.124,51.316 158.044,47.972 160.707,47.972Z" style="fill:rgb(90,0,255);fill-rule:nonzero;"/>
        <path d="M175.761,90.413C177.471,90.413 179.026,92.6 180.428,96.972L180.428,113.37C179.895,111.441 179.223,110.026 178.41,109.126C177.597,108.226 176.784,107.776 175.971,107.776C174.85,107.776 173.826,108.965 172.901,111.345C171.976,113.724 171.051,118 170.126,124.173L170.126,190.729L165.711,190.729L165.711,94.271L169.285,94.271L169.832,105.654C170.729,99.866 171.661,95.879 172.628,93.693C173.595,91.506 174.639,90.413 175.761,90.413Z" style="fill:rgb(90,0,255);fill-rule:nonzero;"/>
        <path d="M201.915,94.271L201.915,190.729L198.341,190.729L197.71,177.225C195.944,188.8 193.729,194.588 191.066,194.588C189.44,194.588 187.941,192.659 186.567,188.8C185.194,184.942 184.107,179.412 183.308,172.21C182.509,165.007 182.11,156.776 182.11,147.516L182.11,94.271L186.525,94.271L186.525,147.516C186.525,156.648 186.967,163.882 187.85,169.219C188.733,174.557 189.917,177.225 191.403,177.225C192.552,177.225 193.666,175.521 194.746,172.113C195.825,168.705 196.743,164.043 197.5,158.127L197.5,94.271L201.915,94.271Z" style="fill:rgb(90,0,255);fill-rule:nonzero;"/>
        <path d="M205.699,94.271L210.114,94.271L210.114,190.729L205.699,190.729L205.699,94.271ZM205.783,49.708L210.199,49.708L210.199,74.787L205.783,74.787L205.783,49.708Z" style="fill:rgb(90,0,255);fill-rule:nonzero;"/>
        <path d="M221.678,111.441L221.678,147.516C221.678,157.805 221.951,165.329 222.498,170.087C223.044,174.846 223.934,177.225 225.168,177.225C226.542,177.225 227.523,175.489 228.111,172.017L228.111,190.729C227.018,193.302 225.855,194.588 224.621,194.588C222.659,194.588 221.138,192.659 220.059,188.8C218.98,184.942 218.244,179.508 217.851,172.499C217.459,165.49 217.263,156.648 217.263,145.973L217.263,111.441L213.058,111.441L213.058,94.079L217.263,94.079L217.263,51.83L221.678,51.83L221.678,94.079L228.111,94.079L228.111,111.441L221.678,111.441Z" style="fill:rgb(90,0,255);fill-rule:nonzero;"/>
    </g>
</svg>
